<svg width="24" height="24" viewBox="0 0 24 24" fill="none" xmlns="http://www.w3.org/2000/svg">
<path d="M20.1731 14.9925C19.3332 14.1213 18.2413 14.1213 17.3664 14.9925C16.7084 15.6477 16.0575 16.2959 15.3995 16.9511C15.2176 17.1323 15.0706 17.1672 14.8536 17.0626C14.4546 16.8117 13.9787 16.6305 13.5797 16.3726C11.6829 15.1737 10.08 13.6473 8.65917 11.9118C7.96624 11.0405 7.3503 10.1344 6.90934 9.08193C6.83934 8.86586 6.83934 8.75434 7.02133 8.57312C7.71426 7.95279 8.3302 7.30458 8.98814 6.6494C9.89806 5.7433 9.89806 4.69082 8.98814 3.78472C8.44219 3.24106 7.93124 2.73225 7.42029 2.22344C6.87434 1.67978 6.36339 1.13611 5.81744 0.627302C4.97752 -0.209101 3.88562 -0.209101 3.0107 0.627302C2.35276 1.28248 1.70182 1.9307 1.04388 2.58588C0.420938 3.20621 0.098968 3.93109 0.0219751 4.76052C-0.0900145 6.10574 0.238955 7.40913 0.714911 8.67767C1.70182 11.3263 3.19268 13.6124 4.97752 15.7522C7.42029 18.6587 10.332 20.9449 13.7267 22.5759C15.2596 23.3008 16.8274 23.8793 18.5003 23.9908C19.7042 24.0605 20.7261 23.7399 21.559 22.8268C22.1049 22.1716 22.7629 21.628 23.3438 21.0146C24.2187 20.1085 24.2187 19.0212 23.3438 18.1499C22.2869 17.0975 21.23 16.045 20.1731 14.9925Z" fill="#C47A5E"/>
</svg>
