<svg width="16" height="16" viewBox="0 0 16 16" fill="none" xmlns="http://www.w3.org/2000/svg">
<path d="M2.55126 10.0008C3.11121 9.41967 3.83914 9.41967 4.42242 10.0008C4.86105 10.4379 5.29501 10.8703 5.73363 11.3073C5.85496 11.4282 5.95295 11.4515 6.0976 11.3817C6.36358 11.2143 6.68088 11.0934 6.94685 10.9214C8.2114 10.1217 9.27997 9.10351 10.2272 7.94581C10.6892 7.36464 11.0998 6.76021 11.3938 6.05816C11.4404 5.91403 11.4404 5.83964 11.3191 5.71875C10.8572 5.30496 10.4465 4.87256 10.0079 4.43552C9.40129 3.8311 9.40129 3.12904 10.0079 2.52462C10.3719 2.16197 10.7125 1.82256 11.0531 1.48316C11.4171 1.1205 11.7577 0.757851 12.1217 0.418445C12.6817 -0.139482 13.4096 -0.139482 13.9929 0.418445C14.4315 0.855488 14.8655 1.28788 15.3041 1.72492C15.7194 2.13872 15.934 2.62226 15.9853 3.17553C16.06 4.07287 15.8407 4.9423 15.5234 5.78849C14.8655 7.55526 13.8715 9.08026 12.6817 10.5076C11.0531 12.4464 9.11199 13.9714 6.84886 15.0594C5.82696 15.5429 4.78172 15.9288 3.66649 16.0032C2.8639 16.0497 2.18263 15.8358 1.62735 15.2268C1.26338 14.7897 0.824757 14.4271 0.43746 14.0179C-0.145821 13.4135 -0.145821 12.6882 0.43746 12.107C1.14206 11.405 1.84666 10.7029 2.55126 10.0008Z" fill="#C47A5E"/>
</svg>
