<svg width="29" height="29" viewBox="0 0 29 29" fill="none" xmlns="http://www.w3.org/2000/svg">
<path d="M27.2497 29.0001C26.8747 29.0001 26.6247 28.8751 26.3747 28.6251L19.3748 21.6251C18.8748 21.1251 18.8748 20.3751 19.3748 19.8751C19.8748 19.3751 20.6247 19.3751 21.1247 19.8751L28.1247 26.8751C28.6247 27.3751 28.6247 28.1251 28.1247 28.6251C27.9997 28.8751 27.6247 29.0001 27.2497 29.0001Z" fill="#513125"/>
<path d="M12.4999 24.8749C5.62497 24.8749 0 19.2499 0 12.3749C0 5.62497 5.62497 0 12.4999 0C19.3749 0 24.9999 5.62497 24.9999 12.4999C24.8749 19.3749 19.3749 24.8749 12.4999 24.8749ZM12.4999 2.49999C6.99996 2.49999 2.49999 6.99996 2.49999 12.4999C2.49999 17.9999 6.99996 22.4999 12.4999 22.4999C17.9999 22.4999 22.4999 17.9999 22.4999 12.4999C22.3749 6.99996 17.9999 2.49999 12.4999 2.49999Z" fill="#513125"/>
</svg>
